<?xml version="1.0" encoding="UTF-8"?>
<svg xmlns="http://www.w3.org/2000/svg" xmlns:xlink="http://www.w3.org/1999/xlink" width="360pt" height="359pt" viewBox="0 0 360 359" version="1.1">
<g id="surface12">
<path style="fill:none;stroke-width:1;stroke-linecap:square;stroke-linejoin:miter;stroke:rgb(50%,50%,50%);stroke-opacity:1;stroke-miterlimit:3.25;" d="M 389.960938 198.140625 C 389.960938 156.132813 373.273438 115.847656 343.570313 86.140625 C 313.867188 56.4375 273.578125 39.75 231.570313 39.75 C 189.5625 39.75 149.277344 56.4375 119.570313 86.140625 C 89.867188 115.847656 73.179688 156.132813 73.179688 198.140625 C 73.179688 240.148438 89.867188 280.4375 119.570313 310.140625 C 149.277344 339.84375 189.5625 356.53125 231.570313 356.53125 C 273.578125 356.53125 313.867188 339.84375 343.570313 310.140625 C 373.273438 280.4375 389.960938 240.148438 389.960938 198.140625 Z M 389.960938 198.140625 " transform="matrix(1,0,0,1,-66,-5)"/>
<path style="fill:none;stroke-width:1;stroke-linecap:square;stroke-linejoin:miter;stroke:rgb(84.999084%,84.999084%,84.999084%);stroke-opacity:1;stroke-miterlimit:3.25;" d="M 262.472656 42.792969 L 76.222656 229.042969 " transform="matrix(1,0,0,1,-66,-5)"/>
<path style="fill:none;stroke-width:1;stroke-linecap:square;stroke-linejoin:miter;stroke:rgb(84.999084%,84.999084%,84.999084%);stroke-opacity:1;stroke-miterlimit:3.25;" d="M 386.917969 167.242188 L 200.671875 353.488281 " transform="matrix(1,0,0,1,-66,-5)"/>
<path style="fill:none;stroke-width:1;stroke-linecap:square;stroke-linejoin:miter;stroke:rgb(84.999084%,84.999084%,84.999084%);stroke-opacity:1;stroke-miterlimit:3.25;" d="M 231.570313 198.140625 L 417.820313 11.894531 " transform="matrix(1,0,0,1,-66,-5)"/>
<path style="fill:none;stroke-width:1;stroke-linecap:square;stroke-linejoin:miter;stroke:rgb(55.554199%,55.554199%,99.998474%);stroke-opacity:1;stroke-miterlimit:3.25;" d="M 231.570313 198.140625 L 386.917969 167.242188 " transform="matrix(1,0,0,1,-66,-5)"/>
<path style="fill:none;stroke-width:1;stroke-linecap:square;stroke-linejoin:miter;stroke:rgb(55.554199%,55.554199%,99.998474%);stroke-opacity:1;stroke-miterlimit:3.25;" d="M 262.472656 42.792969 L 417.820313 11.894531 " transform="matrix(1,0,0,1,-66,-5)"/>
<path style="fill:none;stroke-width:1;stroke-linecap:square;stroke-linejoin:miter;stroke:rgb(99.998474%,55.554199%,55.554199%);stroke-opacity:1;stroke-miterlimit:3.25;" d="M 231.570313 198.140625 L 262.472656 42.792969 " transform="matrix(1,0,0,1,-66,-5)"/>
<path style="fill:none;stroke-width:1;stroke-linecap:square;stroke-linejoin:miter;stroke:rgb(99.998474%,55.554199%,55.554199%);stroke-opacity:1;stroke-miterlimit:3.25;" d="M 386.917969 167.242188 L 417.820313 11.894531 " transform="matrix(1,0,0,1,-66,-5)"/>
<path style="fill:none;stroke-width:1;stroke-linecap:square;stroke-linejoin:miter;stroke:rgb(50%,0%,50%);stroke-opacity:1;stroke-miterlimit:3.25;" d="M 262.472656 42.792969 L 386.917969 167.242188 " transform="matrix(1,0,0,1,-66,-5)"/>
<path style="fill:none;stroke-width:1;stroke-linecap:square;stroke-linejoin:miter;stroke:rgb(50%,0%,50%);stroke-opacity:1;stroke-miterlimit:3.25;" d="M 76.222656 229.042969 L 200.671875 353.488281 " transform="matrix(1,0,0,1,-66,-5)"/>
<path style=" stroke:none;fill-rule:evenodd;fill:rgb(50%,50%,50%);fill-opacity:1;" d="M 167.617188 193 C 167.617188 192.570313 167.445313 192.160156 167.140625 191.859375 C 166.839844 191.554688 166.429688 191.382813 166 191.382813 C 165.570313 191.382813 165.160156 191.554688 164.859375 191.859375 C 164.554688 192.160156 164.382813 192.570313 164.382813 193 C 164.382813 193.429688 164.554688 193.839844 164.859375 194.140625 C 165.160156 194.445313 165.570313 194.617188 166 194.617188 C 166.429688 194.617188 166.839844 194.445313 167.140625 194.140625 C 167.445313 193.839844 167.617188 193.429688 167.617188 193 Z M 167.617188 193 "/>
<path style=" stroke:none;fill-rule:evenodd;fill:rgb(50%,0%,50%);fill-opacity:1;" d="M 260.617188 100 C 260.617188 99.570313 260.445313 99.160156 260.140625 98.859375 C 259.839844 98.554688 259.429688 98.382813 259 98.382813 C 258.570313 98.382813 258.160156 98.554688 257.859375 98.859375 C 257.554688 99.160156 257.382813 99.570313 257.382813 100 C 257.382813 100.429688 257.554688 100.839844 257.859375 101.140625 C 258.160156 101.445313 258.570313 101.617188 259 101.617188 C 259.429688 101.617188 259.839844 101.445313 260.140625 101.140625 C 260.445313 100.839844 260.617188 100.429688 260.617188 100 Z M 260.617188 100 "/>
<path style=" stroke:none;fill-rule:evenodd;fill:rgb(50%,0%,50%);fill-opacity:1;" d="M 73.617188 286 C 73.617188 285.570313 73.445313 285.160156 73.140625 284.859375 C 72.839844 284.554688 72.429688 284.382813 72 284.382813 C 71.570313 284.382813 71.160156 284.554688 70.859375 284.859375 C 70.554688 285.160156 70.382813 285.570313 70.382813 286 C 70.382813 286.429688 70.554688 286.839844 70.859375 287.140625 C 71.160156 287.445313 71.570313 287.617188 72 287.617188 C 72.429688 287.617188 72.839844 287.445313 73.140625 287.140625 C 73.445313 286.839844 73.617188 286.429688 73.617188 286 Z M 73.617188 286 "/>
<path style=" stroke:none;fill-rule:evenodd;fill:rgb(50%,0%,50%);fill-opacity:1;" d="M 353.617188 7 C 353.617188 6.570313 353.445313 6.160156 353.140625 5.859375 C 352.839844 5.554688 352.429688 5.382813 352 5.382813 C 351.570313 5.382813 351.160156 5.554688 350.859375 5.859375 C 350.554688 6.160156 350.382813 6.570313 350.382813 7 C 350.382813 7.429688 350.554688 7.839844 350.859375 8.140625 C 351.160156 8.445313 351.570313 8.617188 352 8.617188 C 352.429688 8.617188 352.839844 8.445313 353.140625 8.140625 C 353.445313 7.839844 353.617188 7.429688 353.617188 7 Z M 353.617188 7 "/>
<path style=" stroke:none;fill-rule:evenodd;fill:rgb(0%,0%,99.998474%);fill-opacity:1;" d="M 323.691406 162 C 323.691406 161.285156 323.410156 160.601563 322.902344 160.097656 C 322.398438 159.589844 321.714844 159.308594 321 159.308594 C 320.285156 159.308594 319.601563 159.589844 319.097656 160.097656 C 318.589844 160.601563 318.308594 161.285156 318.308594 162 C 318.308594 162.714844 318.589844 163.398438 319.097656 163.902344 C 319.601563 164.410156 320.285156 164.691406 321 164.691406 C 321.714844 164.691406 322.398438 164.410156 322.902344 163.902344 C 323.410156 163.398438 323.691406 162.714844 323.691406 162 Z M 323.691406 162 "/>
<path style=" stroke:none;fill-rule:evenodd;fill:rgb(0%,0%,99.998474%);fill-opacity:1;" d="M 12.691406 224 C 12.691406 223.285156 12.410156 222.601563 11.902344 222.097656 C 11.398438 221.589844 10.714844 221.308594 10 221.308594 C 9.285156 221.308594 8.601563 221.589844 8.097656 222.097656 C 7.589844 222.601563 7.308594 223.285156 7.308594 224 C 7.308594 224.714844 7.589844 225.398438 8.097656 225.902344 C 8.601563 226.410156 9.285156 226.691406 10 226.691406 C 10.714844 226.691406 11.398438 226.410156 11.902344 225.902344 C 12.410156 225.398438 12.691406 224.714844 12.691406 224 Z M 12.691406 224 "/>
<path style=" stroke:none;fill-rule:evenodd;fill:rgb(99.998474%,0%,0%);fill-opacity:1;" d="M 198.691406 38 C 198.691406 37.285156 198.410156 36.601563 197.902344 36.097656 C 197.398438 35.589844 196.714844 35.308594 196 35.308594 C 195.285156 35.308594 194.601563 35.589844 194.097656 36.097656 C 193.589844 36.601563 193.308594 37.285156 193.308594 38 C 193.308594 38.714844 193.589844 39.398438 194.097656 39.902344 C 194.601563 40.410156 195.285156 40.691406 196 40.691406 C 196.714844 40.691406 197.398438 40.410156 197.902344 39.902344 C 198.410156 39.398438 198.691406 38.714844 198.691406 38 Z M 198.691406 38 "/>
<path style=" stroke:none;fill-rule:evenodd;fill:rgb(99.998474%,0%,0%);fill-opacity:1;" d="M 137.691406 348 C 137.691406 347.285156 137.410156 346.601563 136.902344 346.097656 C 136.398438 345.589844 135.714844 345.308594 135 345.308594 C 134.285156 345.308594 133.601563 345.589844 133.097656 346.097656 C 132.589844 346.601563 132.308594 347.285156 132.308594 348 C 132.308594 348.714844 132.589844 349.398438 133.097656 349.902344 C 133.601563 350.410156 134.285156 350.691406 135 350.691406 C 135.714844 350.691406 136.398438 350.410156 136.902344 349.902344 C 137.410156 349.398438 137.691406 348.714844 137.691406 348 Z M 137.691406 348 "/>
<path style=" stroke:none;fill-rule:evenodd;fill:rgb(50%,0%,50%);fill-opacity:1;" d="M 280.691406 81 C 280.691406 80.285156 280.410156 79.601563 279.902344 79.097656 C 279.398438 78.589844 278.714844 78.308594 278 78.308594 C 277.285156 78.308594 276.601563 78.589844 276.097656 79.097656 C 275.589844 79.601563 275.308594 80.285156 275.308594 81 C 275.308594 81.714844 275.589844 82.398438 276.097656 82.902344 C 276.601563 83.410156 277.285156 83.691406 278 83.691406 C 278.714844 83.691406 279.398438 83.410156 279.902344 82.902344 C 280.410156 82.398438 280.691406 81.714844 280.691406 81 Z M 280.691406 81 "/>
<path style=" stroke:none;fill-rule:evenodd;fill:rgb(50%,0%,50%);fill-opacity:1;" d="M 56.691406 305 C 56.691406 304.285156 56.410156 303.601563 55.902344 303.097656 C 55.398438 302.589844 54.714844 302.308594 54 302.308594 C 53.285156 302.308594 52.601563 302.589844 52.097656 303.097656 C 51.589844 303.601563 51.308594 304.285156 51.308594 305 C 51.308594 305.714844 51.589844 306.398438 52.097656 306.902344 C 52.601563 307.410156 53.285156 307.691406 54 307.691406 C 54.714844 307.691406 55.398438 307.410156 55.902344 306.902344 C 56.410156 306.398438 56.691406 305.714844 56.691406 305 Z M 56.691406 305 "/>
</g>
</svg>
