<?xml version="1.0" encoding="UTF-8"?>
<svg xmlns="http://www.w3.org/2000/svg" xmlns:xlink="http://www.w3.org/1999/xlink" width="604pt" height="97pt" viewBox="0 0 604 97" version="1.1">
<g id="surface8">
<path style="fill:none;stroke-width:1.25;stroke-linecap:square;stroke-linejoin:miter;stroke:rgb(50%,50%,50%);stroke-opacity:1;stroke-miterlimit:3.25;" d="M 95.058594 53.757813 L 673.941406 53.757813 " transform="matrix(1,0,0,1,-83,-6)"/>
<path style=" stroke:none;fill-rule:evenodd;fill:rgb(50%,50%,50%);fill-opacity:1;" d="M 14.410156 48 C 14.410156 47.359375 14.15625 46.746094 13.707031 46.292969 C 13.253906 45.84375 12.640625 45.589844 12 45.589844 C 11.359375 45.589844 10.746094 45.84375 10.292969 46.292969 C 9.84375 46.746094 9.589844 47.359375 9.589844 48 C 9.589844 48.640625 9.84375 49.253906 10.292969 49.707031 C 10.746094 50.15625 11.359375 50.410156 12 50.410156 C 12.640625 50.410156 13.253906 50.15625 13.707031 49.707031 C 14.15625 49.253906 14.410156 48.640625 14.410156 48 Z M 14.410156 48 "/>
<path style=" stroke:none;fill-rule:evenodd;fill:rgb(50%,50%,50%);fill-opacity:1;" d="M 593.410156 48 C 593.410156 47.359375 593.15625 46.746094 592.707031 46.292969 C 592.253906 45.84375 591.640625 45.589844 591 45.589844 C 590.359375 45.589844 589.746094 45.84375 589.292969 46.292969 C 588.84375 46.746094 588.589844 47.359375 588.589844 48 C 588.589844 48.640625 588.84375 49.253906 589.292969 49.707031 C 589.746094 50.15625 590.359375 50.410156 591 50.410156 C 591.640625 50.410156 592.253906 50.15625 592.707031 49.707031 C 593.15625 49.253906 593.410156 48.640625 593.410156 48 Z M 593.410156 48 "/>
<path style=" stroke:none;fill-rule:evenodd;fill:rgb(0%,0%,99.998474%);fill-opacity:1;" d="M 538.410156 48 C 538.410156 47.359375 538.15625 46.746094 537.707031 46.292969 C 537.253906 45.84375 536.640625 45.589844 536 45.589844 C 535.359375 45.589844 534.746094 45.84375 534.292969 46.292969 C 533.84375 46.746094 533.589844 47.359375 533.589844 48 C 533.589844 48.640625 533.84375 49.253906 534.292969 49.707031 C 534.746094 50.15625 535.359375 50.410156 536 50.410156 C 536.640625 50.410156 537.253906 50.15625 537.707031 49.707031 C 538.15625 49.253906 538.410156 48.640625 538.410156 48 Z M 538.410156 48 "/>
<path style="fill:none;stroke-width:1.25;stroke-linecap:butt;stroke-linejoin:miter;stroke:rgb(0%,0%,99.998474%);stroke-opacity:1;stroke-miterlimit:3.25;" d="M 95.058594 17.578125 L 619.242188 17.578125 L 619.242188 42.8125 " transform="matrix(1,0,0,1,-83,-6)"/>
<path style="fill-rule:nonzero;fill:rgb(0%,0%,99.998474%);fill-opacity:1;stroke-width:0.03;stroke-linecap:square;stroke-linejoin:miter;stroke:rgb(0%,0%,99.998474%);stroke-opacity:1;stroke-miterlimit:3.25;" d="M 622.417969 41.699219 L 622.054688 41.875 L 621.1875 42.261719 L 620.667969 42.464844 L 620.144531 42.644531 L 619.65625 42.769531 L 619.242188 42.8125 L 618.871094 42.769531 L 618.386719 42.644531 L 617.84375 42.464844 L 617.289063 42.261719 L 616.34375 41.875 L 615.941406 41.699219 L 619.242188 53.757813 Z M 622.417969 41.699219 " transform="matrix(1,0,0,1,-83,-6)"/>
<path style=" stroke:none;fill-rule:evenodd;fill:rgb(50%,0%,50%);fill-opacity:1;" d="M 578.410156 48 C 578.410156 47.359375 578.15625 46.746094 577.707031 46.292969 C 577.253906 45.84375 576.640625 45.589844 576 45.589844 C 575.359375 45.589844 574.746094 45.84375 574.292969 46.292969 C 573.84375 46.746094 573.589844 47.359375 573.589844 48 C 573.589844 48.640625 573.84375 49.253906 574.292969 49.707031 C 574.746094 50.15625 575.359375 50.410156 576 50.410156 C 576.640625 50.410156 577.253906 50.15625 577.707031 49.707031 C 578.15625 49.253906 578.410156 48.640625 578.410156 48 Z M 578.410156 48 "/>
<path style="fill:none;stroke-width:1.25;stroke-linecap:butt;stroke-linejoin:miter;stroke:rgb(50%,0%,50%);stroke-opacity:1;stroke-miterlimit:3.25;" d="M 95.058594 89.9375 L 659.226563 89.9375 L 659.226563 64.703125 " transform="matrix(1,0,0,1,-83,-6)"/>
<path style="fill-rule:nonzero;fill:rgb(50%,0%,50%);fill-opacity:1;stroke-width:0.03;stroke-linecap:square;stroke-linejoin:miter;stroke:rgb(50%,0%,50%);stroke-opacity:1;stroke-miterlimit:3.25;" d="M 656.054688 65.816406 L 656.414063 65.640625 L 657.28125 65.253906 L 657.800781 65.046875 L 658.328125 64.871094 L 658.816406 64.746094 L 659.226563 64.703125 L 659.601563 64.746094 L 660.082031 64.871094 L 660.625 65.046875 L 661.179688 65.253906 L 662.125 65.640625 L 662.527344 65.816406 L 659.226563 53.757813 Z M 656.054688 65.816406 " transform="matrix(1,0,0,1,-83,-6)"/>
</g>
</svg>
